<svg xmlns="http://www.w3.org/2000/svg" width="18" height="18" viewBox="0 0 18 18">
  <g id="Group_2022" data-name="Group 2022" transform="translate(-1190 -16948.5)">
    <path id="Path_8" data-name="Path 8" d="M106.545,91H93.455A2.457,2.457,0,0,0,91,93.455v13.091A2.457,2.457,0,0,0,93.455,109h13.091A2.457,2.457,0,0,0,109,106.545V93.455A2.457,2.457,0,0,0,106.545,91ZM100,105.727A5.727,5.727,0,1,1,105.727,100,5.734,5.734,0,0,1,100,105.727Zm5.727-9.818a1.636,1.636,0,1,1,1.636-1.636A1.638,1.638,0,0,1,105.727,95.909Zm0,0" transform="translate(1099 16857.5)" fill="#1d1d1f"/>
    <path id="Path_9" data-name="Path 9" d="M185.091,181a4.091,4.091,0,1,0,4.091,4.091A4.1,4.1,0,0,0,185.091,181Zm0,0" transform="translate(1013.909 16772.408)" fill="#1d1d1f"/>
  </g>
</svg>
