<svg xmlns="http://www.w3.org/2000/svg" width="38" height="38" viewBox="0 0 38 38">
  <g id="Group_2279" data-name="Group 2279" transform="translate(-377 -100)">
    <g id="icon-certificate-download" transform="translate(377 100)">
      <path id="Path_11251" d="M3.773,26.894H0v30.59H30.59V53.711H3.773Z" transform="translate(0 -19.484)"/>
      <path id="Path_11252" d="M26.894,0V30.59h30.59V0ZM41.179,15.632c.809-1.348,2.291-2.156,3.1-3.5a2.22,2.22,0,0,0-.539-3.234,2.259,2.259,0,0,0-1.617-.4,2.884,2.884,0,0,0-2.83,2.291L36.732,9.7A5.783,5.783,0,0,1,42.257,5.66a5.446,5.446,0,0,1,4.851,2.426,4.512,4.512,0,0,1,0,4.851c-1.213,1.752-2.291,2.291-2.965,3.5-.27.4-.4.809-.4,2.291H40.774A6,6,0,0,1,41.179,15.632ZM40.1,22.909a2.072,2.072,0,0,1,2.021-2.021h0A2.021,2.021,0,1,1,40.1,22.909Z" transform="translate(-19.484)"/>
    </g>
  </g>
</svg>
