<svg xmlns="http://www.w3.org/2000/svg" width="20" height="20" viewBox="0 0 200 200"><path d="M100 0a100 100 0 00-27 4c-2 0-4 0-7 2A100 100 0 00 28 30l-4 4a100 100 0 00 102 162l7-2a100 100 0 00 39-24l3-4A100 100 0 00 100 0zm70 157a117 117 0 00-22-10 170 170 0 00 6-42h37a90 90 0 01-20 52zm-6 7a82 82 0 01-13 11l-7 5h-1l-7 4h-2a70 70 0 01-7 3 88 88 0 00 18-30 110 110 0 01 20 7zm-100 20-7-4h-1l-7-5a90 90 0 01-14-10v-1a110 110 0 01 20-8 88 88 0 00 17 30c-2 0-5 0-7-2zm-35-140a117 117 0 00 23 8 170 170 0 00-7 43H10a90 90 0 01 20-52zm6-8a82 82 0 01 14-11l7-5h1l7-4h1l7-3a88 88 0 00-17 30 110 110 0 01-20-7zm100-20 8 4 8 5a90 90 0 01 13 10v1a110 110 0 01-19 8 88 88 0 00-18-30l8 2zM95 50a165 165 0 01-31-4c7-20 19-34 31-36zm-34 5a174 174 0 00 34 4v36h-40a160 160 0 01 6-40zm34 50 1 35a174 174 0 00-34 4 160 160 0 01-6-40h40zm0 45v40c-12-2-24-16-31-36a165 165 0 01 31-4zm10 0a165 165 0 01 31 4c-7 20-19 34-32 36zm34-5a174 174 0 00-35-4v-36h41a160 160 0 01-6 40zm-35-50V60a174 174 0 00 35-4 160 160 0 01 6 40zm0-45V10c13 2 25 16 32 36a165 165 0 01-32 4zm-59 55a170 170 0 00 7 43 117 117 0 00-23 9 90 90 0 01-20-52zm110-10a170 170 0 00-7-43 117 117 0 00 23-9 90 90 0 01 20 52" fill="#00b3ac" data-name="Path 60"/></svg>
