<svg xmlns="http://www.w3.org/2000/svg" fill="#00b3ac" width="117" height="18.5" viewBox="0 0 1170 185"><path d="m410 104-20-9c-13-5-24-10-22-15 0-4 7-6 27-6s40 3 60 7l3-28a350 350 0 00-63-6 234 234 0 00-36 2c-18 2-49 10-50 35-2 26 29 37 48 44l15 7c18 7 26 10 26 15s-13 6-30 6a464 464 0 01-60-7l-2 30a587 587 0 00 68 4h8c32 0 72-5 77-32 4-25-23-36-48-47M640 127c10-64-46-77-60-79a130 130 0 00-15 0c-60-1-90 36-92 67-2 28 9 70 96 70 20 0 42-2 62-7l4-28a296 296 0 01-60 7h-2c-40-1-47-20-48-30zm-112-25c3-18 18-30 36-29 33 0 31 29 31 29zm640 25c12-64-45-77-58-79a131 131 0 00-16 0c-60-1-90 36-92 67-2 28 8 70 96 70a227 227 0 00 61-7l5-28a296 296 0 01-60 7h-2c-40-1-48-20-48-30zm-111-25c2-18 18-30 36-29 33 0 30 29 30 29zm-290-7-5 87h52l6-88c2-40-26-43-45-45L750 48h-10l-74 6-8 128H710l7-104a216 216 0 01 33-2c5 0 20 0 18 20M281 0h-43l-3 35h56l2-23C293 4 290 0 281 0m660 104-20-9c-15-5-26-10-24-15 1-4 8-6 27-6 20 0 40 3 60 7l3-28a350 350 0 00-62-6 235 235 0 00-37 2c-18 2-48 10-50 35-1 26 30 37 48 44l16 7c17 7 26 10 25 15 0 5-12 6-29 6a464 464 0 01-60-7l-2 30c22 2 45 4 67 4h8c33 0 73-5 77-32 4-25-22-36-48-47M154 0l-5 64H67L70 12C70 0 60 0 57 0H14L0 183h57l7-81h82l-6 80h57L210 0zm80 50-10 133H280L290 50"/></svg>
