<svg xmlns="http://www.w3.org/2000/svg" width="232.586" height="38.644" viewBox="0 0 232.586 38.644">
  <g id="Dp4aUP" transform="translate(0.5 0.5)">
    <g id="Group_3" data-name="Group 3">
      <path id="Path_1" data-name="Path 1" d="M-544.487,121c-.1,1.287-.209,2.575-.309,3.862-.059.76-.106,1.521-.167,2.281-.1,1.21-.2,2.419-.3,3.629-.064.812-.106,1.625-.17,2.437-.094,1.184-.2,2.367-.3,3.551-.06.734-.111,1.469-.17,2.2-.1,1.249-.2,2.5-.3,3.745-.061.786-.105,1.573-.168,2.359-.095,1.184-.2,2.367-.3,3.551-.063.8-.106,1.6-.17,2.4-.094,1.171-.2,2.341-.3,3.512-.062.76-.116,1.52-.169,2.281-.032.464-.039.931-.093,1.393-.012.1-.165.2-.272.271-.055.036-.152.008-.23.008h-10.962c-.539,0-.563-.034-.522-.58.082-1.069.151-2.139.234-3.208.124-1.6.261-3.192.38-4.789.068-.915.1-1.833.167-2.749.091-1.249.2-2.5.3-3.746.033-.412.075-.825.073-1.238,0-.1-.152-.212-.259-.281-.065-.042-.177-.01-.268-.01h-15.682c-.55,0-.531,0-.57.543-.09,1.249-.207,2.5-.3,3.746-.067.9-.1,1.807-.167,2.71-.093,1.275-.207,2.549-.3,3.824-.064.877-.1,1.755-.167,2.632-.065.914-.165,1.827-.2,2.742-.018.409-.23.409-.53.408q-5.208-.009-10.416,0c-.182,0-.364,0-.546.007v-3.351a3.948,3.948,0,0,0,.083-.442c.06-.8.107-1.6.169-2.4.1-1.248.2-2.495.3-3.743.06-.759.108-1.52.17-2.279.1-1.183.2-2.365.3-3.548.063-.785.107-1.572.168-2.357.1-1.235.2-2.469.3-3.7.06-.747.108-1.494.17-2.24.1-1.144.2-2.287.3-3.431.065-.811.1-1.624.166-2.435.1-1.287.2-2.573.306-3.859q.049-.618.1-1.235.1-1.234.2-2.467h9.6c.129.051.256.11.388.153a1.722,1.722,0,0,1,1.258,1.3,5.534,5.534,0,0,1,.125,1.265c-.013.631-.105,1.26-.137,1.891-.063,1.266-.106,2.533-.163,3.8-.024.529-.065,1.058-.1,1.587-.057.99-.112,1.981-.171,3.024h3.092q6.589,0,13.178,0c.286,0,.521-.019.549-.375.079-.978.162-1.956.241-2.934.059-.721.109-1.442.174-2.162.093-1.041.2-2.08.293-3.121.065-.707.119-1.415.18-2.123q.1-1.156.2-2.312Z" transform="translate(587.636 -121)" fill="#fff" stroke="rgba(0,0,0,0)" stroke-width="1"/>
      <path id="Path_2" data-name="Path 2" d="M848.27,217.714c-.353-.053-.7-.117-1.058-.158a32.438,32.438,0,0,1-5.114-.87,13.931,13.931,0,0,1-6.741-3.9,10.239,10.239,0,0,1-2.592-5.378,24.966,24.966,0,0,1-.242-2.971,11.63,11.63,0,0,1,1.1-4.8,14.72,14.72,0,0,1,3.545-5.143,16,16,0,0,1,4.629-3.022,21.731,21.731,0,0,1,5.555-1.547c.956-.147,1.935-.145,2.9-.266a18.656,18.656,0,0,1,3.625.22,15.693,15.693,0,0,1,6.314,1.891,11.4,11.4,0,0,1,5.732,6.463,23.806,23.806,0,0,1,.611,2.753,1.411,1.411,0,0,0,.081.208v2.884c-.08.5-.166,1.009-.237,1.515-.082.581-.077.582-.665.582H843.624c-.516,0-.646.115-.471.589a8.491,8.491,0,0,0,.889,1.918,7.215,7.215,0,0,0,3.747,2.649,16.616,16.616,0,0,0,6.647.864c1.6-.117,3.207-.159,4.8-.328,1.553-.164,3.095-.436,4.638-.681.606-.1,1.2-.249,1.8-.375.024.053.046.077.042.1-.249,1.645-.513,3.289-.742,4.937a.715.715,0,0,1-.6.676,34.914,34.914,0,0,1-6.266,1.035c-.445.036-.888.1-1.331.159Zm-4.629-17.085c.247.012.375.023.5.023h12.591c.52,0,.606-.078.5-.589a10.8,10.8,0,0,0-.466-1.794,4.847,4.847,0,0,0-2.683-2.768,8.348,8.348,0,0,0-4.716-.485,6.441,6.441,0,0,0-5.043,3.691A18.665,18.665,0,0,0,843.641,200.629Z" transform="translate(-635.02 -180.07)" fill="#fff" stroke="rgba(0,0,0,0)" stroke-width="1"/>
      <path id="Path_3" data-name="Path 3" d="M98.728,217.718c-.353-.053-.7-.116-1.058-.159a33.28,33.28,0,0,1-5.113-.869,14.87,14.87,0,0,1-5.638-2.857,10.888,10.888,0,0,1-3.806-7.029,17.516,17.516,0,0,1-.031-3.947,10.392,10.392,0,0,1,.571-2.008,14.3,14.3,0,0,1,2.363-4.555,15,15,0,0,1,4.833-4.13,20.834,20.834,0,0,1,6.987-2.243c.931-.144,1.882-.145,2.818-.26a19.171,19.171,0,0,1,3.7.221,15.728,15.728,0,0,1,6.31,1.9,11.706,11.706,0,0,1,4.968,4.768,11.484,11.484,0,0,1,1.352,4.455,19.264,19.264,0,0,1-.163,4.719c-.056.38-.238.46-.6.459q-10.941-.015-21.882-.008a3.54,3.54,0,0,1-.39,0c-.361-.04-.445.167-.368.449a5.971,5.971,0,0,0,4.024,4.455,13.089,13.089,0,0,0,4.357,1.039,18.681,18.681,0,0,0,2.166.138c1.821-.084,3.64-.217,5.457-.368a43.492,43.492,0,0,0,6.495-1.072c.011,0,.025.007.092.028-.046.362-.086.737-.143,1.11-.2,1.34-.416,2.677-.614,4.018a.519.519,0,0,1-.447.5c-1.392.281-2.776.613-4.177.836-1.121.179-2.262.226-3.394.336a.591.591,0,0,0-.17.077Zm1.872-17.061c2.118,0,4.236-.006,6.355.007.336,0,.483-.092.444-.44s-.017-.7-.089-1.04a4.944,4.944,0,0,0-3.621-3.92,9.186,9.186,0,0,0-4.258-.23,6.547,6.547,0,0,0-3.653,1.83,7.054,7.054,0,0,0-1.813,3.295c-.125.487-.114.5.4.5Q97.481,200.658,100.6,200.656Z" transform="translate(10.277 -180.074)" fill="#fff" stroke="rgba(0,0,0,0)" stroke-width="1"/>
      <path id="Path_4" data-name="Path 4" d="M-242,121c.142.055.282.112.426.163a1.17,1.17,0,0,1,.883,1.188c-.043,1.187-.136,2.372-.209,3.559-.031.5-.063,1.006-.093,1.51-.008.142,0,.285-.015.428-.026.349-.177.485-.567.483q-5.3-.028-10.606,0c-.381,0-.547-.084-.507-.494.113-1.156.2-2.314.3-3.471.059-.695.119-1.39.171-2.085.032-.425.049-.851.072-1.276Z" transform="translate(299.277 -121)" fill="#fff" stroke="rgba(0,0,0,0)" stroke-width="1"/>
      <path id="Path_5" data-name="Path 5" d="M340.211,219.07c.065-1.176.121-2.286.19-3.395.1-1.573.207-3.146.312-4.719q.116-1.741.233-3.481.157-2.359.314-4.719.115-1.721.232-3.442.159-2.379.315-4.758c.024-.361.051-.721.074-1.082.021-.326.061-.568.507-.6,1.3-.091,2.6-.251,3.9-.366,1.623-.142,3.247-.27,4.872-.4,1.109-.085,2.218-.184,3.329-.225,2.009-.074,4.02-.18,6.028-.143a31.333,31.333,0,0,1,7.607.927,7.573,7.573,0,0,1,4.021,2.373,6.722,6.722,0,0,1,1.4,3.239,15.407,15.407,0,0,1,.014,4.329c-.049.449-.058.9-.088,1.355-.1,1.56-.21,3.12-.306,4.68-.063,1.02-.1,2.041-.165,3.06-.09,1.379-.2,2.757-.3,4.135q-.049.677-.085,1.355c-.031.581-.077,1.163-.073,1.745,0,.339-.1.448-.443.444-1.651-.016-3.3-.007-4.954-.007s-3.329-.01-4.993.008c-.365,0-.484-.116-.454-.467.085-1,.156-2.009.228-3.013.034-.464.057-.929.087-1.394.1-1.547.209-3.094.3-4.641.063-1.007.1-2.015.166-3.022.091-1.392.219-2.782.292-4.175a21.767,21.767,0,0,0,.022-2.748,2.421,2.421,0,0,0-2.257-2.2,12.386,12.386,0,0,0-1.775-.162c-.956-.026-1.914-.039-2.869,0-.981.042-1.959.158-2.938.237a.524.524,0,0,0-.553.548c-.05.943-.1,1.885-.162,2.827-.092,1.327-.2,2.653-.3,3.979-.034.451-.058.9-.089,1.355-.1,1.456-.207,2.912-.3,4.369-.06.9-.1,1.807-.165,2.71-.095,1.353-.2,2.7-.3,4.057-.024.336-.022.674-.041,1.01-.018.308-.161.432-.5.419-.74-.029-1.482-.009-2.223-.009h-8.111Z" transform="translate(-211.177 -181.901)" fill="#fff" stroke="rgba(0,0,0,0)" stroke-width="1"/>
      <path id="Path_6" data-name="Path 6" d="M-139.14,216.729c-1.466,0-2.934.03-4.4-.009s-2.949-.131-4.421-.231c-1.625-.11-3.248-.252-4.872-.389-.425-.036-.849-.087-1.268-.164a.363.363,0,0,1-.236-.258c.028-1.021.081-2.041.125-3.062.034-.776.07-1.552.093-2.328.015-.477.091-.552.546-.465.939.181,1.874.388,2.818.54,1.1.177,2.2.3,3.3.462a60.821,60.821,0,0,0,9.592.369,4.633,4.633,0,0,0,1.575-.336.68.68,0,0,0,.187-1.237,8.674,8.674,0,0,0-1.932-1.124c-2.969-1.182-5.967-2.293-8.941-3.465a16.879,16.879,0,0,1-4.4-2.451,6.746,6.746,0,0,1-2.505-3.513,5.86,5.86,0,0,1,1.061-5.415,8.946,8.946,0,0,1,3.878-2.624,22.855,22.855,0,0,1,5.417-1.312,25.079,25.079,0,0,1,2.673-.168c1.583-.045,3.167-.087,4.75-.074,1.386.011,2.779.021,4.155.166,2.632.277,5.253.668,7.884.965.469.053.547.218.519.615q-.171,2.378-.315,4.758c-.02.319-.239.268-.419.239-.638-.1-1.27-.239-1.909-.332-1.087-.158-2.173-.326-3.266-.427q-2.24-.207-4.49-.314c-1.244-.061-2.493-.117-3.735-.063a10.733,10.733,0,0,0-3.322.508c-.987.367-1.141.932-.388,1.647a8.188,8.188,0,0,0,2.522,1.424c2,.861,4.006,1.694,6,2.561,1.413.614,2.83,1.225,4.209,1.912a13.646,13.646,0,0,1,4.245,2.962,5.216,5.216,0,0,1,1.419,3.157,5,5,0,0,1-1.958,4.332,11.74,11.74,0,0,1-5.434,2.433c-1.262.265-2.546.432-3.823.62a10.025,10.025,0,0,1-1.356.088C-136.754,216.737-137.947,216.729-139.14,216.729Z" transform="translate(214.594 -179.95)" fill="#fff" stroke="rgba(0,0,0,0)" stroke-width="1"/>
      <path id="Path_7" data-name="Path 7" d="M612.2,216.718c-1.467,0-2.934.031-4.4-.009s-2.949-.131-4.422-.231c-1.625-.11-3.248-.253-4.872-.389-.451-.038-.9-.085-1.346-.166a.4.4,0,0,1-.228-.3c.005-.621.039-1.241.074-1.862.044-.774.1-1.547.148-2.321.029-.465.046-.93.084-1.394.032-.4.346-.249.537-.22.5.075.986.216,1.483.3,1.313.215,2.625.445,3.945.607,1.4.171,2.8.33,4.208.385,2.063.08,4.129.076,6.194.075a4.167,4.167,0,0,0,1.252-.239.785.785,0,0,0,.309-1.418,7.1,7.1,0,0,0-1.714-.972c-2.973-1.174-5.968-2.293-8.944-3.461a16.835,16.835,0,0,1-4.868-2.785,6.234,6.234,0,0,1-2.4-5.583,5.823,5.823,0,0,1,2.3-4.114,13.976,13.976,0,0,1,5.734-2.453,24.947,24.947,0,0,1,5.658-.636c1.688,0,3.376-.1,5.063-.056,1.746.042,3.495.136,5.231.318,2.016.211,4.02.537,6.027.825.559.08.542.1.482.676-.051.488-.064.981-.09,1.472-.054,1.046-.117,2.092-.152,3.139-.01.305-.161.353-.4.314-.982-.162-1.96-.349-2.944-.49s-2-.265-3-.354c-1.391-.124-2.784-.252-4.179-.3-1.244-.04-2.492,0-3.736.062a19.032,19.032,0,0,0-2.494.321,2.615,2.615,0,0,0-1,.474.592.592,0,0,0-.088.971,6.363,6.363,0,0,0,1.463,1.111c1.038.525,2.128.949,3.2,1.412,1.663.72,3.335,1.42,4.989,2.16,1.372.614,2.74,1.24,4.078,1.923a12.259,12.259,0,0,1,3.4,2.428,5.186,5.186,0,0,1,1.548,4.276,4.868,4.868,0,0,1-1.273,2.7,9.033,9.033,0,0,1-3.717,2.4,19.866,19.866,0,0,1-5.171,1.173c-1.985.175-3.976.284-5.965.421C612.208,216.84,612.206,216.779,612.2,216.718Z" transform="translate(-432.2 -179.94)" fill="#fff" stroke="rgba(0,0,0,0)" stroke-width="1"/>
      <path id="Path_8" data-name="Path 8" d="M-268.205,220.908a1.02,1.02,0,0,0,.131-.3c.062-.812.1-1.625.166-2.437.093-1.2.2-2.393.3-3.59.062-.773.112-1.547.17-2.32.1-1.313.2-2.627.3-3.94.059-.786.107-1.573.167-2.359.1-1.262.2-2.523.3-3.785.06-.786.109-1.573.169-2.359.1-1.3.206-2.6.3-3.9.04-.542.074-1.085.082-1.628,0-.295.1-.418.406-.418q5.344.01,10.689,0c.3,0,.39.112.366.392-.131,1.479-.263,2.958-.381,4.438-.069.863-.1,1.729-.167,2.593-.09,1.171-.2,2.341-.3,3.512-.064.786-.109,1.573-.17,2.359-.1,1.275-.206,2.549-.3,3.824-.063.838-.1,1.677-.168,2.515-.093,1.21-.2,2.419-.3,3.629-.061.76-.112,1.521-.166,2.281-.029.413-.04.827-.093,1.237-.012.094-.156.18-.255.248-.045.031-.127.008-.192.008h-11.055Z" transform="translate(312.628 -183.739)" fill="#fff" stroke="rgba(0,0,0,0)" stroke-width="1"/>
    </g>
  </g>
</svg>
