<svg xmlns="http://www.w3.org/2000/svg" width="12" height="12" viewBox="0 0 120 120"><path d="M60 0a60 60 0 00-16 2 60 60 0 00-4 1 60 60 0 00-23 15l-2 3a60 60 0 00 60 97l5-1a60 60 0 00 23-15l2-3A60 60 0 00 60 0zm42 94A70 70 0 00 90 90a102 102 0 00 3-26h22a54 54 0 01-12 31zm-4 4a54 54 0 01-7 7l-5 3-5 2-5 2a53 53 0 00 11-18 66 66 0 01 12 4zm-60 12-4-2c-2 0-3-2-5-3a85 85 0 01-8-7 66 66 0 01 12-4 53 53 0 00 10 18L40 110zm-20-84a70 70 0 00 13 5 102 102 0 00-4 26H5a54 54 0 01 12-31zm3-4a54 54 0 01 8-7l5-3 4-2h1l4-2a53 53 0 00-10 18 66 66 0 01-12-4zm60-12q3 0 5 2c2 0 3 2 4 3 2 0 3 2 5 3l4 3a66 66 0 01-12 5 53 53 0 00-10-18l4 2zM57 30a99 99 0 01-19-2c5-12 11-20 20-22zm-20 3a104 104 0 00 20 2v22H33a96 96 0 01 3-24zm20 30v22a104 104 0 00-20 2 96 96 0 01-4-24h24zm0 27v24c-8-1-14-10-19-22a99 99 0 01 20-2zm6 0a99 99 0 01 19 2c-5 12-12 20-20 22zm20-3a104 104 0 00-20-2V63h24a96 96 0 01-4 24zm-20-30V35a104 104 0 00 20-2 96 96 0 01 4 24zm0-27V6c7 1 14 10 19 22a99 99 0 01-20 2zM27 63a102 102 0 00 4 26 70 70 0 00-14 5A54 54 0 01 5 63zm65-6a102 102 0 00-3-26 70 70 0 00 13-5 54 54 0 01 12 31" fill="#1d1d1f" data-name="Path 60"/></svg>
