<svg id="Layer_1" data-name="Layer 1" xmlns="http://www.w3.org/2000/svg" viewBox="0 0 24 24"><defs><style>.cls-1{fill:#1d1d1f;}</style></defs><title>icon-linkedin</title><g id="Group_2586" data-name="Group 2586" transform="translate(4 4)"><g id="linkedin"><path id="Path_11449" data-name="Path 11449" class="cls-1" d="M28.35,28.35h0v-6c0-2.93-.63-5.19-4.06-5.19a3.57,3.57,0,0,0-3.21,1.76h0V17.43H17.79V28.35h3.38V23c0-1.43.27-2.8,2-2.8S25,21.77,25,23v5.31Z" transform="translate(-11.98 -12)"/><path id="Path_11450" data-name="Path 11450" class="cls-1" d="M12.27,17.44h3.39V28.36H12.27Z" transform="translate(-11.98 -12)"/><path id="Path_11451" data-name="Path 11451" class="cls-1" d="M14,12a2,2,0,1,0,2,2v0A2,2,0,0,0,14,12Z" transform="translate(-11.98 -12)"/></g></g></svg>