<svg xmlns="http://www.w3.org/2000/svg" width="20" height="14.092" viewBox="0 0 20 14.092">
  <path id="Path_7" data-name="Path 7" d="M-85.418-116.8a2.513,2.513,0,0,0-1.768-1.78C-88.746-119-95-119-95-119s-6.254,0-7.814.421a2.513,2.513,0,0,0-1.768,1.78,26.359,26.359,0,0,0-.418,4.845,26.359,26.359,0,0,0,.418,4.845,2.513,2.513,0,0,0,1.768,1.78c1.56.421,7.814.421,7.814.421s6.254,0,7.814-.421a2.513,2.513,0,0,0,1.768-1.78A26.36,26.36,0,0,0-85-111.955,26.36,26.36,0,0,0-85.418-116.8Zm-11.627,7.819v-5.947l5.227,2.974Z" transform="translate(105 119)" fill="#1d1d1f"/>
</svg>
