<svg xmlns="http://www.w3.org/2000/svg" width="48.046" height="46.199" viewBox="0 0 48.046 46.199"><g transform="translate(0.25 0.25)"><path d="M113.516,13.719l7.255,4.188a.929.929,0,0,0,1.27-.34l3.7-6.4,3.227,5.588-1.277.737a.93.93,0,0,0,.418,1.734l8.057.407h.047a.93.93,0,0,0,.841-.534l3.265-6.944a.93.93,0,0,0-1.306-1.2l-1.167.674L136.7,9.587a.93.93,0,0,0-1.625.9l1.595,2.867a.93.93,0,0,0,.565.444.919.919,0,0,0,.23.033l-1.838,3.908-4.569-.231a.929.929,0,0,0-.025-.883L126.53,8.821v0l-4.019-6.96h7.521l1.329,2.347a.93.93,0,1,0,1.618-.916l-1.6-2.818-.008-.012c-.016-.026-.033-.052-.051-.077L131.3.357a.938.938,0,0,0-.066-.076l-.007-.008A.913.913,0,0,0,131.15.2l-.024-.017a.845.845,0,0,0-.071-.048l-.022-.014a.923.923,0,0,0-.205-.086L130.8.029c-.028-.007-.057-.013-.086-.017l-.029,0A.967.967,0,0,0,130.573,0H120.9a.93.93,0,0,0-.805.465l-6.919,11.985a.93.93,0,0,0,.34,1.27ZM120.9,2.789l3.763,6.518L120.9,15.833l-5.644-3.259Zm0,0" transform="translate(-102.553)" fill="#00b3ac" stroke="#00b3ac" stroke-width="0.5"/><path d="M268.463,240.963h0l-6.887-12a.93.93,0,0,0-1.269-.344l-7.266,4.169a.93.93,0,0,0-.344,1.269l3.679,6.411-6.453-.017,0-1.475a.93.93,0,0,0-1.709-.509l-4.4,6.762a.929.929,0,0,0,.015,1.036l4.364,6.311a.93.93,0,0,0,.765.4.94.94,0,0,0,.276-.042.93.93,0,0,0,.654-.885l0-1.362,12.9.035h0a.947.947,0,0,0,.116-.008l.03,0c.029,0,.058-.011.086-.018l.028-.007a1,1,0,0,0,.1-.036l.026-.013c.025-.012.049-.024.073-.038l.03-.018c.025-.016.049-.032.073-.05l.017-.013a.918.918,0,0,0,.074-.066l.006-.007c.016-.017.031-.035.046-.052s.024-.027.035-.042.029-.043.043-.065.016-.023.023-.035l4.854-8.355a.93.93,0,0,0,0-.93Zm-6.2,7.9-13.292-.036h0a.931.931,0,0,0-.794.447l-2.456-3.552,2.495-3.835a.929.929,0,0,0,.777.422l17.055.046Zm-3.74-8.387-3.75-6.536,5.653-3.244,5.623,9.8Zm0,0" transform="translate(-221.041 -207.275)" fill="#00b3ac" stroke="#00b3ac" stroke-width="0.5"/><path d="M20.262,230.946a.931.931,0,0,0-.658-.272H12.212l3.226-5.588,1.277.737a.93.93,0,0,0,1.292-1.229l-3.676-7.181a.932.932,0,0,0-.906-.5l-7.646.645a.93.93,0,0,0-.387,1.731l1.18.681L.124,231.139l-.008.016c-.014.025-.026.051-.038.078,0,.009-.009.019-.012.029a.948.948,0,0,0-.034.1l0,.008a.919.919,0,0,0-.02.1c0,.01,0,.021,0,.031a.834.834,0,0,0-.005.085c0,.009,0,.017,0,.025a.931.931,0,0,0,.029.22l.007.025c.008.028.017.056.028.084l.01.025a.888.888,0,0,0,.05.1l3.091,5.353,1.734,3a.877.877,0,0,0,.065.1l.018.025a.916.916,0,0,0,.067.078l.009.011,0,0c.012.012.024.022.037.033l.032.028.04.029.035.025c.013.009.027.017.041.025l.039.022.041.019.044.02.04.014.05.016.014,0,.02,0c.026.007.053.012.08.016l.033.005a.868.868,0,0,0,.1.007h4.47a.93.93,0,1,0,0-1.859H7.376l3.763-6.518h7.536v6.517h-1.03a.93.93,0,0,0,0,1.859H19.6a.93.93,0,0,0,.93-.93V231.6a.931.931,0,0,0-.272-.657Zm-10.476.213v0l-4.018,6.961L2,231.6l6.646-11.511a.932.932,0,0,0,.009-.914l4.3-.363,2.084,4.072a.93.93,0,0,0-.752.464Zm0,0" transform="translate(0 -196.765)" fill="#00b3ac" stroke="#00b3ac" stroke-width="0.5"/><path d="M327.791,65.417l.01.024a.93.93,0,1,0,1.725-.695l-.01-.024a.93.93,0,0,0-1.725.695Zm0,0" transform="translate(-297.291 -58.183)" fill="#00b3ac" stroke="#00b3ac" stroke-width="0.5"/><path d="M142.138,455.821a.93.93,0,0,0-1.724.7l.01.024a.93.93,0,1,0,1.724-.7Zm0,0" transform="translate(-127.314 -412.965)" fill="#00b3ac" stroke="#00b3ac" stroke-width="0.5"/></g></svg>